<mxfile host="app.diagrams.net" modified="2022-09-15T16:37:09.524Z" agent="5.0 (Macintosh; Intel Mac OS X 10_15_7) AppleWebKit/537.36 (KHTML, like Gecko) Chrome/105.0.0.0 Safari/537.36" etag="YQdKgkGq25MWffKWuN22" version="20.3.1" type="github">
  <diagram id="QOJws539fqBSgupLrR6U" name="第 1 页">
    <mxGraphModel dx="1426" dy="737" grid="1" gridSize="10" guides="1" tooltips="1" connect="1" arrows="1" fold="1" page="1" pageScale="1" pageWidth="827" pageHeight="1169" math="0" shadow="0">
      <root>
        <mxCell id="0" />
        <mxCell id="1" parent="0" />
        <mxCell id="8LqY17IdmFCUgcOD1Ssi-3" value="nginx" style="sketch=0;pointerEvents=1;shadow=0;dashed=0;html=1;strokeColor=none;fillColor=#505050;labelPosition=center;verticalLabelPosition=bottom;verticalAlign=top;outlineConnect=0;align=center;shape=mxgraph.office.servers.network;" vertex="1" parent="1">
          <mxGeometry x="397" y="280" width="34" height="57" as="geometry" />
        </mxCell>
        <mxCell id="8LqY17IdmFCUgcOD1Ssi-4" value="" style="sketch=0;pointerEvents=1;shadow=0;dashed=0;html=1;strokeColor=none;fillColor=#505050;labelPosition=center;verticalLabelPosition=bottom;verticalAlign=top;outlineConnect=0;align=center;shape=mxgraph.office.security.trusted_application_server;" vertex="1" parent="1">
          <mxGeometry x="580" y="180" width="46" height="57" as="geometry" />
        </mxCell>
        <mxCell id="8LqY17IdmFCUgcOD1Ssi-5" value="client" style="shape=image;html=1;verticalAlign=top;verticalLabelPosition=bottom;labelBackgroundColor=#ffffff;imageAspect=0;aspect=fixed;image=https://cdn4.iconfinder.com/data/icons/essential-app-1/16/computer-destop-it-website-128.png" vertex="1" parent="1">
          <mxGeometry x="220" y="283.5" width="50" height="50" as="geometry" />
        </mxCell>
        <mxCell id="8LqY17IdmFCUgcOD1Ssi-6" value="" style="sketch=0;pointerEvents=1;shadow=0;dashed=0;html=1;strokeColor=none;fillColor=#505050;labelPosition=center;verticalLabelPosition=bottom;verticalAlign=top;outlineConnect=0;align=center;shape=mxgraph.office.security.trusted_application_server;" vertex="1" parent="1">
          <mxGeometry x="580" y="280" width="46" height="57" as="geometry" />
        </mxCell>
        <mxCell id="8LqY17IdmFCUgcOD1Ssi-7" value="" style="sketch=0;pointerEvents=1;shadow=0;dashed=0;html=1;strokeColor=none;fillColor=#505050;labelPosition=center;verticalLabelPosition=bottom;verticalAlign=top;outlineConnect=0;align=center;shape=mxgraph.office.security.trusted_application_server;" vertex="1" parent="1">
          <mxGeometry x="580" y="380" width="46" height="57" as="geometry" />
        </mxCell>
        <mxCell id="8LqY17IdmFCUgcOD1Ssi-8" value="" style="endArrow=classic;startArrow=classic;html=1;rounded=0;" edge="1" parent="1">
          <mxGeometry width="50" height="50" relative="1" as="geometry">
            <mxPoint x="280" y="308" as="sourcePoint" />
            <mxPoint x="390" y="308" as="targetPoint" />
          </mxGeometry>
        </mxCell>
        <mxCell id="8LqY17IdmFCUgcOD1Ssi-9" value="" style="endArrow=classic;startArrow=classic;html=1;rounded=0;" edge="1" parent="1">
          <mxGeometry width="50" height="50" relative="1" as="geometry">
            <mxPoint x="450" y="308" as="sourcePoint" />
            <mxPoint x="560" y="308" as="targetPoint" />
          </mxGeometry>
        </mxCell>
        <mxCell id="8LqY17IdmFCUgcOD1Ssi-10" value="" style="endArrow=classic;startArrow=classic;html=1;rounded=0;" edge="1" parent="1">
          <mxGeometry width="50" height="50" relative="1" as="geometry">
            <mxPoint x="450" y="333.5" as="sourcePoint" />
            <mxPoint x="560" y="410" as="targetPoint" />
          </mxGeometry>
        </mxCell>
        <mxCell id="8LqY17IdmFCUgcOD1Ssi-11" value="" style="endArrow=classic;startArrow=classic;html=1;rounded=0;" edge="1" parent="1">
          <mxGeometry width="50" height="50" relative="1" as="geometry">
            <mxPoint x="450" y="280" as="sourcePoint" />
            <mxPoint x="560" y="210" as="targetPoint" />
          </mxGeometry>
        </mxCell>
      </root>
    </mxGraphModel>
  </diagram>
</mxfile>
